<svg width="27" height="19" viewBox="0 0 27 19" fill="none" xmlns="http://www.w3.org/2000/svg">
<path d="M26.986 1.15835C27.0069 1.19022 26.9982 1.21834 26.9982 1.24458C26.9982 6.31943 27.0034 11.3943 26.9947 16.4691C26.993 17.4665 26.5641 18.2351 25.7587 18.7338C25.4554 18.9231 25.112 18.9981 24.7563 18.9981C19.19 18.9981 13.6255 18.9981 8.05919 18.9981C6.12763 18.9981 4.19434 18.9944 2.26278 19C1.20809 19.0037 0.404441 18.2201 0.132489 17.2677C0.0331222 16.9209 0 16.5685 0 16.2067C0.00348656 11.3474 0.00174316 6.48815 0.00174316 1.6289C0.00174316 1.43955 0.00522976 1.24833 0.00348648 1.05899C0.00348648 0.987748 0.0244059 0.989623 0.0714745 1.01962C0.871641 1.53329 1.67181 2.04696 2.47372 2.55876C3.27737 3.07243 4.08102 3.5861 4.88467 4.09977C6.13461 4.90027 7.3828 5.6989 8.63099 6.4994C9.76761 7.22867 10.9025 7.95793 12.0374 8.68719C12.4993 8.9834 12.9648 9.27773 13.4268 9.57393C13.4773 9.6058 13.5157 9.60768 13.5662 9.57393C14.1659 9.19524 14.7656 8.81655 15.367 8.43973C16.2648 7.87544 17.1643 7.31303 18.0639 6.74874C19.2598 5.99698 20.4557 5.24522 21.6516 4.49346C22.8562 3.73795 24.0608 2.98432 25.2636 2.22881C25.7831 1.90261 26.3009 1.57453 26.8204 1.24646C26.8744 1.21271 26.9302 1.18647 26.9843 1.15647L26.986 1.15835Z" fill="rgba(200, 200, 200, 0.926)"/>
<path d="M13.4683 0.00140193C17.3213 0.00140193 21.1743 0.00420578 25.0272 0C25.8662 0 26.4946 0.281787 26.9681 0.803304C26.9897 0.827137 27.0293 0.849568 26.9645 0.879008C26.5306 1.07388 26.0985 1.27015 25.6664 1.46642C24.8256 1.84914 23.9848 2.23187 23.1421 2.61459C22.1429 3.06882 21.1418 3.52024 20.1426 3.97446C19.1614 4.42028 18.1819 4.86889 17.2007 5.31611C16.1996 5.77173 15.195 6.22456 14.1939 6.67878C13.9725 6.77972 13.751 6.87926 13.5314 6.9816C13.4791 7.00683 13.4413 7.00543 13.3873 6.9816C12.6779 6.65074 11.965 6.32269 11.2556 5.99324C10.395 5.59509 9.53616 5.19554 8.67554 4.79599C7.61508 4.30392 6.55641 3.81184 5.49595 3.32116C4.30405 2.76881 3.11215 2.21645 1.92026 1.66549C1.30811 1.3823 0.695953 1.09771 0.0838001 0.81452C-0.0188255 0.766854 -0.0242269 0.76405 0.0513919 0.69115C0.508706 0.245337 1.09205 0.00280385 1.83024 0.00280385C2.85109 0.00280385 3.87014 0.00280385 4.891 0.00280385C7.75011 0.00280385 10.6092 0.00280385 13.4701 0.00280385L13.4683 0.00140193Z" fill="rgba(200, 200, 200, 0.926)"/>
</svg>
