<svg width="19" height="19" viewBox="0 0 19 19" fill="none" xmlns="http://www.w3.org/2000/svg">
<path d="M10.8409 12.1974C11.4384 12.1974 12.0336 12.1844 12.6281 12.2028C12.9157 12.212 13.0241 12.1248 13.0531 11.8256C13.1271 11.0673 13.2431 10.3128 13.3484 9.51316C12.5067 9.51316 11.6872 9.51316 10.8218 9.51316C10.818 8.69134 10.6936 7.90319 10.9729 7.14183C11.1568 6.64063 11.5414 6.36516 12.0756 6.34297C12.5166 6.3246 12.9592 6.33914 13.4446 6.33914C13.4446 5.57931 13.4499 4.8937 13.4362 4.20961C13.4347 4.1484 13.3202 4.05122 13.2439 4.03515C12.0565 3.7834 10.86 3.69235 9.72751 4.21268C8.49587 4.77892 8.02885 5.87926 7.94262 7.15637C7.89149 7.91544 7.93346 8.68063 7.93346 9.48178C7.13526 9.48178 6.37903 9.48178 5.58998 9.48178C5.58998 10.3908 5.58998 11.2609 5.58998 12.1867C6.35156 12.1867 7.11847 12.1867 7.90447 12.1867C7.90447 14.4808 7.90447 16.7197 7.90447 18.9495C7.87013 18.9732 7.84876 19 7.82816 19C6.26685 18.9709 4.69334 19.0497 3.1473 18.8799C1.3502 18.6824 0.101764 17.2095 0.0681875 15.3921C0.00866565 12.2564 0.0124812 9.11908 0.000271545 5.98333C-0.00278086 5.20666 0.0201122 4.42846 0.0582672 3.65256C0.158233 1.62939 1.55776 0.144918 3.56395 0.0729899C5.90057 -0.0096508 8.24099 0.00335746 10.5799 0.000296694C12.219 -0.00199888 13.8597 0.00794861 15.4981 0.0683987C17.3066 0.13497 18.8405 1.60108 18.9061 3.41535C18.9946 5.84712 18.9778 8.28273 18.9946 10.7176C19.0038 12.0941 19.0022 13.4715 18.9824 14.8488C18.9671 15.9308 18.7367 16.9455 17.9675 17.7734C17.3417 18.4468 16.5649 18.8921 15.6705 18.9319C14.0741 19.0023 12.4724 18.9518 10.8401 18.9518C10.8409 16.7396 10.8409 14.4923 10.8409 12.1974Z" fill="rgba(200, 200, 200, 0.926)"/>
</svg>
