<svg width="19" height="19" viewBox="0 0 19 19" fill="none" xmlns="http://www.w3.org/2000/svg">
<path d="M9.48611 0.0573141C11.4306 0.0573141 13.3757 0.0149592 15.3188 0.0691179C17.4126 0.126748 18.9139 1.60847 18.9479 3.69358C19.0083 7.35971 18.9979 11.0279 19 14.6947C19.0007 15.4106 18.9451 16.1327 18.6249 16.7965C17.9718 18.1512 16.8652 18.8802 15.3862 18.9434C13.7106 19.0149 12.0301 18.9997 10.3524 18.9976C8.11894 18.9948 5.8841 19.0059 3.65134 18.942C1.61518 18.8837 0.0965704 17.3867 0.0604462 15.3481C-0.00416073 11.6591 0.00834383 7.96796 7.45335e-06 4.27822C-0.000687244 3.88731 0.0472469 3.49223 0.116022 3.10617C0.423773 1.36754 1.81873 0.141329 3.58395 0.0677292C4.56626 0.026763 5.55064 0.0156535 6.53364 0.00523838C7.51733 -0.00517675 8.50172 0.00315535 9.48541 0.00315535C9.48611 0.0205139 9.48611 0.0392612 9.48611 0.0573141ZM9.50208 3.32489C8.63371 3.32489 7.76603 3.32072 6.89766 3.32558C4.87123 3.33739 3.32275 4.88855 3.3158 6.91811C3.31024 8.64147 3.31024 10.3655 3.3158 12.0889C3.32275 14.1268 4.89137 15.6842 6.93309 15.6863C8.64622 15.6883 10.3593 15.6883 12.0718 15.6863C14.1149 15.6835 15.6821 14.124 15.6863 12.0875C15.6891 10.3641 15.6891 8.64008 15.6863 6.91672C15.6828 4.88924 14.1364 3.33739 12.1058 3.32558C11.2388 3.32072 10.3705 3.32489 9.50208 3.32489Z" fill="rgba(200, 200, 200, 0.926)"/>
<path d="M9.53289 4.49629C10.3895 4.49629 11.246 4.49212 12.1026 4.49698C13.535 4.50601 14.5549 5.51767 14.5604 6.94315C14.5674 8.66721 14.5667 10.3913 14.5604 12.1153C14.5549 13.5561 13.5232 14.5733 12.0748 14.5754C10.3617 14.5781 8.64854 14.5774 6.93472 14.5754C5.46682 14.5733 4.44701 13.5547 4.44492 12.0875C4.44284 10.3864 4.44284 8.68595 4.44492 6.98481C4.44631 5.50517 5.44529 4.50323 6.92777 4.49629C7.79684 4.49351 8.66521 4.49629 9.53289 4.49629ZM12.716 9.52958C12.7139 7.76734 11.2759 6.32449 9.51761 6.31963C7.73362 6.31477 6.29282 7.75067 6.29282 9.53374C6.29282 11.3106 7.70236 12.7242 9.48704 12.7361C11.2731 12.7479 12.7181 11.3133 12.716 9.52958ZM12.807 6.94732C13.2148 6.95496 13.5663 6.62376 13.5781 6.22173C13.5899 5.81832 13.253 5.47323 12.8397 5.46559C12.4194 5.45796 12.0803 5.77666 12.072 6.1884C12.0651 6.59598 12.3978 6.94038 12.807 6.94732Z" fill="rgba(200, 200, 200, 0.926)"/>
<path d="M9.48734 11.6096C8.34457 11.6027 7.41853 10.6695 7.41992 9.52728C7.42201 8.38856 8.35777 7.45744 9.50054 7.45606C10.6593 7.45467 11.5944 8.39897 11.5832 9.55783C11.5728 10.6986 10.635 11.6166 9.48734 11.6096Z" fill="#757575"/>
</svg>
