<svg width="11" height="19" viewBox="0 0 11 19" fill="none" xmlns="http://www.w3.org/2000/svg">
<path d="M11 9.52111C11 12.1958 11 14.8713 11 17.5459C11 18.156 10.6574 18.6752 10.1107 18.8853C9.92054 18.9585 9.71891 18.998 9.51401 18.998C6.84119 18.9996 4.16919 19.002 1.49636 18.9971C0.885738 18.9963 0.416089 18.7364 0.144791 18.1834C0.0103709 17.9097 0.00217454 17.6071 0.00135491 17.3101C-0.00110399 14.625 0.000535259 11.9406 0.000535259 9.2555C0.000535259 6.86093 -0.00192356 4.46637 0.00381386 2.07261C0.00381386 1.75709 -0.00684146 1.43996 0.0472543 1.12444C0.140692 0.58194 0.606243 0.0861238 1.28982 0.0209273C1.41522 0.00885385 1.5398 0.000804896 1.66603 0.000804896C4.27738 0.000804896 6.88872 -0.00241469 9.50007 0.00402448C10.0632 0.00563427 10.5222 0.226981 10.8098 0.725211C10.9541 0.975533 10.9975 1.25322 10.9975 1.53574C10.9992 4.19753 10.9984 6.85932 10.9984 9.52031L11 9.52111ZM10.1722 8.72587C10.1722 6.17194 10.1722 3.6172 10.1746 1.06327C10.1746 0.96507 10.1615 0.931264 10.0525 0.932069C7.08134 0.935289 4.11017 0.935289 1.139 0.935289C1.05048 0.935289 0.962784 0.935289 0.874263 0.932069C0.829183 0.930459 0.816069 0.948167 0.816889 0.991631C0.820167 1.12202 0.820168 1.25161 0.820168 1.38201C0.820168 6.36431 0.820168 11.3466 0.820168 16.3289C0.820168 16.4539 0.881913 16.5165 1.0054 16.5165C4.01018 16.5165 7.01577 16.5165 10.0205 16.5165C10.0271 16.5165 10.0345 16.5165 10.041 16.5165C10.2123 16.5148 10.182 16.5285 10.1812 16.3804C10.1795 16.2235 10.173 16.0665 10.173 15.9096C10.173 13.5158 10.173 11.1212 10.173 8.72748L10.1722 8.72587ZM5.30519 17.1563C4.87899 17.1121 4.64867 17.4864 4.64703 17.764C4.64457 18.0627 4.8839 18.4023 5.31667 18.4007C5.66337 18.3991 5.94615 18.1118 5.94615 17.7624C5.94615 17.4075 5.67895 17.1547 5.30519 17.1563Z" fill="rgba(200, 200, 200, 0.926)"/>
</svg>
